<svg viewBox="0 0 1024 1024" xmlns="http://www.w3.org/2000/svg"><path fill="currentColor" d="M384 419.84a42.666667 42.666667 0 0 0-42.666667 42.666667v85.333333a42.666667 42.666667 0 1 0 85.333334 0v-85.333333a42.666667 42.666667 0 0 0-42.666667-42.666667zM597.333333 462.506667a42.666667 42.666667 0 1 1 85.333334 0v85.333333a42.666667 42.666667 0 1 1-85.333334 0v-85.333333zM433.066667 648.789333a14.208 14.208 0 0 0-14.165334 14.208c0 43.52 35.328 78.890667 78.933334 78.890667h28.373333a78.933333 78.933333 0 0 0 78.890667-78.933333 14.208 14.208 0 0 0-14.208-14.165334H433.066667z"></path><path fill="currentColor" d="M554.752 212.906667a85.333333 85.333333 0 1 0-85.333333 0v32.128H277.333333a128 128 0 0 0-128 128V746.666667a128 128 0 0 0 128 128h63.914667v71.509333a51.2 51.2 0 0 0 74.112 45.824l225.621333-112.810667a42.624 42.624 0 0 1 19.072-4.522666h86.613334a128 128 0 0 0 128-128V373.034667a128 128 0 0 0-128-128h-191.914667V212.906667zM234.666667 372.992a42.666667 42.666667 0 0 1 42.666666-42.666667h469.333334a42.666667 42.666667 0 0 1 42.666666 42.666667V746.666667a42.666667 42.666667 0 0 1-42.666666 42.666666h-86.613334a128 128 0 0 0-57.216 13.525334l-176.256 88.106666V840.533333a51.2 51.2 0 0 0-51.2-51.2H277.333333a42.666667 42.666667 0 0 1-42.666666-42.666666V373.034667zM20.906667 482.56c0-34.602667 28.074667-62.72 62.72-62.72a22.613333 22.613333 0 0 1 22.613333 22.613333v210.773334a22.613333 22.613333 0 0 1-22.613333 22.613333 62.72 62.72 0 0 1-62.72-62.72v-130.56zM940.544 420.693333c34.645333 0 62.72 28.117333 62.72 62.762667v130.517333a62.72 62.72 0 0 1-62.72 62.72 22.613333 22.613333 0 0 1-22.613333-22.570666V443.306667a22.613333 22.613333 0 0 1 22.613333-22.613334z"></path></svg>