<svg viewBox="0 0 1024 1024" xmlns="http://www.w3.org/2000/svg" fill="currentColor"><path d="M347.935089 840.769629H111.92348V183.176681l236.011609 0.021732a48.349246 48.349246 0 0 0 0-96.697213H109.651875c-51.759847 0-93.864419 42.344899-93.864418 94.389816v662.161722c0 52.061535 42.104571 94.414104 93.864418 94.414103h238.281936a48.349246 48.349246 0 0 0 0.001278-96.697212z m659.979602-336.202517a48.576789 48.576789 0 0 0-13.619398-29.358277L643.044199 116.770932a47.990033 47.990033 0 0 0-68.021567-0.49216 48.626645 48.626645 0 0 0-0.462758 68.3501l271.107062 276.640981-544.65319 0.020453a48.350524 48.350524 0 0 0 0 96.698491l545.420192-0.020453L570.738926 839.29315a48.640706 48.640706 0 0 0 0.519005 68.405068 47.965745 47.965745 0 0 0 67.96532-0.547128l355.093774-362.271634a48.12298 48.12298 0 0 0 13.836715-33.901486c0.016618-0.424408 0.024288-0.860321 0.024288-1.32947a45.867994 45.867994 0 0 0-0.263337-5.086501z" fill="#3B3F51"></path></svg>