<svg viewBox="0 0 1024 1024" xmlns="http://www.w3.org/2000/svg" fill="currentColor"><path d="M277.333333 938.666667a192 192 0 1 1 0-384 192 192 0 0 1 0 384z m469.333334 0a192 192 0 1 1 0-384 192 192 0 0 1 0 384z m-469.333334-469.333334a192 192 0 1 1 0-384 192 192 0 0 1 0 384z m469.333334 0a192 192 0 1 1 0-384 192 192 0 0 1 0 384z m0-85.333333a106.666667 106.666667 0 1 0 0-213.333333 106.666667 106.666667 0 0 0 0 213.333333z m-469.333334 0a106.666667 106.666667 0 1 0 0-213.333333 106.666667 106.666667 0 0 0 0 213.333333z m469.333334 469.333333a106.666667 106.666667 0 1 0 0-213.333333 106.666667 106.666667 0 0 0 0 213.333333z m-469.333334 0a106.666667 106.666667 0 1 0 0-213.333333 106.666667 106.666667 0 0 0 0 213.333333z"></path></svg>