<svg viewBox="0 0 1024 1024" xmlns="http://www.w3.org/2000/svg" fill="currentColor"><path d="M458.678857 730.672762c150.211048 0 271.993905-121.782857 271.993905-272.018286 0-3.047619-0.048762-6.095238-0.146286-9.142857h-107.471238a10.678857 10.678857 0 0 1-7.558095-18.212571l125.123047-125.074286c4.144762-4.169143 10.898286-4.169143 15.067429 0l125.098667 125.074286a10.654476 10.654476 0 0 1-7.558096 18.212571H789.211429a329.313524 329.313524 0 0 1-76.897524 221.305905l183.100952 183.100952-41.472 41.496381-183.100952-183.100952a329.337905 329.337905 0 0 1-212.163048 77.019428c-107.398095 0-202.849524-51.2-263.241143-130.511238l41.935238-41.935238a271.652571 271.652571 0 0 0 221.305905 113.785905zM458.678857 186.660571c92.769524 0 174.689524 46.445714 223.792762 117.369905l42.032762-42.057143A330.191238 330.191238 0 0 0 458.678857 128c-182.613333 0-330.678857 148.041143-330.678857 330.678857 0 4.071619 0.073143 8.118857 0.24381 12.190476H47.104a10.678857 10.678857 0 0 0-7.558095 18.188191l125.098666 125.098666c4.169143 4.144762 10.922667 4.144762 15.09181 0l125.074286-125.098666a10.678857 10.678857 0 0 0-7.533715-18.212572H186.928762a276.601905 276.601905 0 0 1-0.24381-12.190476c0-150.186667 121.758476-271.993905 271.993905-271.993905z"></path></svg>