<svg  viewBox="0 0 1024 1024"  xmlns="http://www.w3.org/2000/svg"  fill="currentColor"><path d="M896 384a128 128 0 0 1 0 256h-22.176a385.824 385.824 0 0 1-15.392 37.376l15.616 15.648a128 128 0 0 1-180.992 180.992l-15.616-15.648a384.8 384.8 0 0 1-37.44 15.456V896a128 128 0 0 1-256 0v-22.176a388.736 388.736 0 0 1-37.408-15.392l-15.616 15.616a128 128 0 0 1-180.992-180.992l15.616-15.616A383.04 383.04 0 0 1 150.176 640H128a128 128 0 0 1 0-256h22.176a383.04 383.04 0 0 1 15.392-37.408l-15.616-15.616a128 128 0 0 1 180.992-180.992l15.616 15.616A388.736 388.736 0 0 1 384 150.176V128a128 128 0 0 1 256 0v22.176a384.8 384.8 0 0 1 37.408 15.424l15.616-15.648a128 128 0 0 1 180.992 180.992l-15.616 15.648A385.824 385.824 0 0 1 873.824 384H896z m-67.2-98.272a64.288 64.288 0 0 0 0-90.496 65.824 65.824 0 0 0-90.496 0l-49.28 49.312-21.12-11.84a318.944 318.944 0 0 0-68.608-28.32L576 197.792V128a64 64 0 0 0-128 0v69.792l-23.264 6.592a319.392 319.392 0 0 0-68.608 28.288l-21.12 11.84-49.28-49.28a65.824 65.824 0 0 0-90.496 0 64.288 64.288 0 0 0 0 90.496l49.28 49.28-11.84 21.152a319.232 319.232 0 0 0-28.288 68.576L197.792 448H128a64 64 0 0 0 0 128h69.792l6.592 23.264a319.712 319.712 0 0 0 28.288 68.608l11.84 21.12-49.28 49.28a64.288 64.288 0 0 0 0 90.496 65.824 65.824 0 0 0 90.496 0l49.28-49.28 21.12 11.84a319.392 319.392 0 0 0 68.608 28.288l23.264 6.592V896a64 64 0 0 0 128 0v-69.792l23.264-6.592a318.944 318.944 0 0 0 68.608-28.32l21.12-11.84 49.28 49.312a65.824 65.824 0 0 0 90.496 0 64.288 64.288 0 0 0 0-90.496l-49.248-49.28 11.776-21.12a318.72 318.72 0 0 0 28.32-68.608l6.592-23.264H896a64 64 0 0 0 0-128h-69.792l-6.592-23.264a318.72 318.72 0 0 0-28.32-68.608l-11.776-21.12zM512 704a192 192 0 1 1 192-192 192.224 192.224 0 0 1-192 192z m0-320a128 128 0 1 0 128 128 128 128 0 0 0-128-128z"  ></path></svg>