<svg viewBox="0 0 1024 1024" xmlns="http://www.w3.org/2000/svg"><path fill="currentColor" d="M256 160c-105.6 0-192 86.4-192 192 0 64 32 121.6 80 153.6C57.6 550.4 0 636.8 0 736h64c0-105.6 86.4-192 192-192s192 86.4 192 192h64c0-102.4 83.2-188.8 185.6-192h6.4c80 0 147.2-48 176-115.2 0 0 0-3.2 3.2-3.2 3.2-3.2 3.2-9.6 3.2-12.8 0-3.2 0-3.2 3.2-6.4 0-3.2 3.2-9.6 3.2-12.8 0-3.2 0-6.4 3.2-9.6 0-3.2 0-6.4 3.2-9.6v-19.2c0-105.6-86.4-192-192-192s-192 86.4-192 192c0 64 32 121.6 80 153.6-48 22.4-86.4 60.8-112 105.6-25.6-44.8-64-83.2-112-105.6C416 473.6 448 416 448 352c0-105.6-86.4-192-192-192z m0 64c70.4 0 128 57.6 128 128s-57.6 128-128 128-128-57.6-128-128 57.6-128 128-128z m448 0c70.4 0 128 57.6 128 128s-57.6 128-128 128-128-57.6-128-128 57.6-128 128-128z m67.2 352v67.2c-19.2 3.2-38.4 12.8-54.4 22.4l-48-48-44.8 44.8 48 48c-12.8 16-19.2 35.2-22.4 57.6H576v64h67.2c3.2 19.2 12.8 38.4 22.4 57.6l-48 48 44.8 44.8 48-48c16 9.6 35.2 19.2 54.4 22.4V1024h64v-67.2c19.2-3.2 38.4-12.8 54.4-22.4l48 48 44.8-44.8-48-48c12.8-16 19.2-35.2 22.4-57.6H1024v-64h-67.2c-3.2-19.2-12.8-38.4-22.4-57.6l48-48-44.8-44.8-48 48c-16-9.6-35.2-19.2-54.4-22.4V576h-64z m28.8 128c54.4 0 96 41.6 96 96s-41.6 96-96 96-96-41.6-96-96 41.6-96 96-96z m0 64a27.904 27.904 0 0 0-11.744 2.752 36.416 36.416 0 0 0-10.24 7.264 36.416 36.416 0 0 0-7.264 10.24A27.904 27.904 0 0 0 768 800c0 4 0.992 8 2.752 11.744 1.76 3.744 4.256 7.264 7.264 10.24 2.976 3.008 6.496 5.504 10.24 7.264A27.904 27.904 0 0 0 800 832c16 0 32-16 32-32s-16-32-32-32z"></path></svg>